<svg cache-id="947b98050bd94d70b660419fcf608109" id="eLAhyq3sora1" xmlns="http://www.w3.org/2000/svg" xmlns:xlink="http://www.w3.org/1999/xlink" width="1920" height="560" viewBox="0 0 1920 560" shape-rendering="geometricPrecision" text-rendering="geometricPrecision">
<style><![CDATA[
#eLAhyq3sora3 {animation: eLAhyq3sora3_c_o 7300ms linear infinite normal forwards}@keyframes eLAhyq3sora3_c_o { 0% {opacity: 0.1} 76.712329% {opacity: 0.1;animation-timing-function: cubic-bezier(0,0,0.58,1)} 82.191781% {opacity: 0;animation-timing-function: cubic-bezier(0,0,0.58,1)} 89.041096% {opacity: 0.1} 100% {opacity: 0.1}} #eLAhyq3sora4 {animation: eLAhyq3sora4_c_o 7300ms linear infinite normal forwards}@keyframes eLAhyq3sora4_c_o { 0% {opacity: 0.1} 73.972603% {opacity: 0.1;animation-timing-function: cubic-bezier(0,0,0.58,1)} 79.452055% {opacity: 0;animation-timing-function: cubic-bezier(0,0,0.58,1)} 86.30137% {opacity: 0.1} 100% {opacity: 0.1}} #eLAhyq3sora5 {animation: eLAhyq3sora5_c_o 7300ms linear infinite normal forwards}@keyframes eLAhyq3sora5_c_o { 0% {opacity: 0.3} 71.232877% {opacity: 0.3;animation-timing-function: cubic-bezier(0,0,0.58,1)} 76.712329% {opacity: 0;animation-timing-function: cubic-bezier(0,0,0.58,1)} 83.561644% {opacity: 0.3} 100% {opacity: 0.3}} #eLAhyq3sora6 {animation: eLAhyq3sora6_c_o 7300ms linear infinite normal forwards}@keyframes eLAhyq3sora6_c_o { 0% {opacity: 0.1} 72.60274% {opacity: 0.1;animation-timing-function: cubic-bezier(0,0,0.58,1)} 78.082192% {opacity: 0;animation-timing-function: cubic-bezier(0,0,0.58,1)} 84.931507% {opacity: 0.1} 100% {opacity: 0.1}} #eLAhyq3sora7 {animation: eLAhyq3sora7_c_o 7300ms linear infinite normal forwards}@keyframes eLAhyq3sora7_c_o { 0% {opacity: 0.1} 73.972603% {opacity: 0.1;animation-timing-function: cubic-bezier(0,0,0.58,1)} 79.452055% {opacity: 0;animation-timing-function: cubic-bezier(0,0,0.58,1)} 86.30137% {opacity: 0.1} 100% {opacity: 0.1}} #eLAhyq3sora8 {animation: eLAhyq3sora8_c_o 7300ms linear infinite normal forwards}@keyframes eLAhyq3sora8_c_o { 0% {opacity: 0.1} 72.60274% {opacity: 0.1;animation-timing-function: cubic-bezier(0,0,0.58,1)} 78.082192% {opacity: 0;animation-timing-function: cubic-bezier(0,0,0.58,1)} 84.931507% {opacity: 0.1} 100% {opacity: 0.1}} #eLAhyq3sora9 {animation: eLAhyq3sora9_c_o 7300ms linear infinite normal forwards}@keyframes eLAhyq3sora9_c_o { 0% {opacity: 0.2} 75.342466% {opacity: 0.2;animation-timing-function: cubic-bezier(0,0,0.58,1)} 80.821918% {opacity: 0;animation-timing-function: cubic-bezier(0,0,0.58,1)} 87.671233% {opacity: 0.2} 100% {opacity: 0.2}} #eLAhyq3sora10 {animation: eLAhyq3sora10_c_o 7300ms linear infinite normal forwards}@keyframes eLAhyq3sora10_c_o { 0% {opacity: 0.2} 72.60274% {opacity: 0.2;animation-timing-function: cubic-bezier(0,0,0.58,1)} 78.082192% {opacity: 0;animation-timing-function: cubic-bezier(0,0,0.58,1)} 84.931507% {opacity: 0.2} 100% {opacity: 0.2}} #eLAhyq3sora11 {animation: eLAhyq3sora11_c_o 7300ms linear infinite normal forwards}@keyframes eLAhyq3sora11_c_o { 0% {opacity: 0.2} 73.972603% {opacity: 0.2;animation-timing-function: cubic-bezier(0,0,0.58,1)} 79.452055% {opacity: 0;animation-timing-function: cubic-bezier(0,0,0.58,1)} 86.30137% {opacity: 0.2} 100% {opacity: 0.2}} #eLAhyq3sora12 {animation: eLAhyq3sora12_c_o 7300ms linear infinite normal forwards}@keyframes eLAhyq3sora12_c_o { 0% {opacity: 0.1} 75.342466% {opacity: 0.1;animation-timing-function: cubic-bezier(0,0,0.58,1)} 80.821918% {opacity: 0;animation-timing-function: cubic-bezier(0,0,0.58,1)} 87.671233% {opacity: 0.1} 100% {opacity: 0.1}} #eLAhyq3sora13 {animation: eLAhyq3sora13_c_o 7300ms linear infinite normal forwards}@keyframes eLAhyq3sora13_c_o { 0% {opacity: 0.1} 76.712329% {opacity: 0.1;animation-timing-function: cubic-bezier(0,0,0.58,1)} 82.191781% {opacity: 0;animation-timing-function: cubic-bezier(0,0,0.58,1)} 89.041096% {opacity: 0.1} 100% {opacity: 0.1}} #eLAhyq3sora14 {animation: eLAhyq3sora14_c_o 7300ms linear infinite normal forwards}@keyframes eLAhyq3sora14_c_o { 0% {opacity: 0.1} 72.60274% {opacity: 0.1;animation-timing-function: cubic-bezier(0,0,0.58,1)} 78.082192% {opacity: 0;animation-timing-function: cubic-bezier(0,0,0.58,1)} 84.931507% {opacity: 0.1} 100% {opacity: 0.1}} #eLAhyq3sora15 {animation: eLAhyq3sora15_c_o 7300ms linear infinite normal forwards}@keyframes eLAhyq3sora15_c_o { 0% {opacity: 0.2} 78.082192% {opacity: 0.2;animation-timing-function: cubic-bezier(0,0,0.58,1)} 83.561644% {opacity: 0;animation-timing-function: cubic-bezier(0,0,0.58,1)} 90.410959% {opacity: 0.2} 100% {opacity: 0.2}} #eLAhyq3sora16 {animation: eLAhyq3sora16_c_o 7300ms linear infinite normal forwards}@keyframes eLAhyq3sora16_c_o { 0% {opacity: 0.3} 4.109589% {opacity: 0.3;animation-timing-function: cubic-bezier(0,0,0.58,1)} 9.589041% {opacity: 0;animation-timing-function: cubic-bezier(0,0,0.58,1)} 38.356164% {opacity: 0;animation-timing-function: cubic-bezier(0,0,0.58,1)} 43.835616% {opacity: 0.3} 72.60274% {opacity: 0.3;animation-timing-function: cubic-bezier(0,0,0.58,1)} 78.082192% {opacity: 0;animation-timing-function: cubic-bezier(0,0,0.58,1)} 84.931507% {opacity: 0.3} 100% {opacity: 0.3}} #eLAhyq3sora17 {animation: eLAhyq3sora17_c_o 7300ms linear infinite normal forwards}@keyframes eLAhyq3sora17_c_o { 0% {opacity: 0.5} 71.232877% {opacity: 0.5;animation-timing-function: cubic-bezier(0,0,0.58,1)} 75.342466% {opacity: 0;animation-timing-function: cubic-bezier(0,0,0.58,1)} 90.410959% {opacity: 0.5} 100% {opacity: 0.5}} #eLAhyq3sora19 {animation: eLAhyq3sora19_c_o 7300ms linear infinite normal forwards}@keyframes eLAhyq3sora19_c_o { 0% {opacity: 0.1} 75.342466% {opacity: 0.1;animation-timing-function: cubic-bezier(0,0,0.58,1)} 80.821918% {opacity: 0;animation-timing-function: cubic-bezier(0,0,0.58,1)} 87.671233% {opacity: 0.1} 100% {opacity: 0.1}} #eLAhyq3sora20 {animation: eLAhyq3sora20_c_o 7300ms linear infinite normal forwards}@keyframes eLAhyq3sora20_c_o { 0% {opacity: 0.1} 76.712329% {opacity: 0.1;animation-timing-function: cubic-bezier(0,0,0.58,1)} 82.191781% {opacity: 0;animation-timing-function: cubic-bezier(0,0,0.58,1)} 89.041096% {opacity: 0.1} 100% {opacity: 0.1}} #eLAhyq3sora21 {animation: eLAhyq3sora21_c_o 7300ms linear infinite normal forwards}@keyframes eLAhyq3sora21_c_o { 0% {opacity: 0.1} 76.712329% {opacity: 0.1;animation-timing-function: cubic-bezier(0,0,0.58,1)} 82.191781% {opacity: 0;animation-timing-function: cubic-bezier(0,0,0.58,1)} 89.041096% {opacity: 0.1} 100% {opacity: 0.1}} #eLAhyq3sora22 {animation: eLAhyq3sora22_c_o 7300ms linear infinite normal forwards}@keyframes eLAhyq3sora22_c_o { 0% {opacity: 0.1} 73.972603% {opacity: 0.1;animation-timing-function: cubic-bezier(0,0,0.58,1)} 79.452055% {opacity: 0;animation-timing-function: cubic-bezier(0,0,0.58,1)} 86.30137% {opacity: 0.1} 100% {opacity: 0.1}} #eLAhyq3sora23 {animation: eLAhyq3sora23_c_o 7300ms linear infinite normal forwards}@keyframes eLAhyq3sora23_c_o { 0% {opacity: 0.2} 5.479452% {opacity: 0.2;animation-timing-function: cubic-bezier(0,0,0.58,1)} 10.958904% {opacity: 0;animation-timing-function: cubic-bezier(0,0,0.58,1)} 43.835616% {opacity: 0;animation-timing-function: cubic-bezier(0,0,0.58,1)} 49.315068% {opacity: 0.2} 76.712329% {opacity: 0.2;animation-timing-function: cubic-bezier(0,0,0.58,1)} 82.191781% {opacity: 0;animation-timing-function: cubic-bezier(0,0,0.58,1)} 89.041096% {opacity: 0.2} 100% {opacity: 0.2}} #eLAhyq3sora24 {animation: eLAhyq3sora24_c_o 7300ms linear infinite normal forwards}@keyframes eLAhyq3sora24_c_o { 0% {opacity: 0.2} 75.342466% {opacity: 0.2;animation-timing-function: cubic-bezier(0,0,0.58,1)} 80.821918% {opacity: 0;animation-timing-function: cubic-bezier(0,0,0.58,1)} 87.671233% {opacity: 0.2} 100% {opacity: 0.2}} #eLAhyq3sora25 {animation: eLAhyq3sora25_c_o 7300ms linear infinite normal forwards}@keyframes eLAhyq3sora25_c_o { 0% {opacity: 0.2} 79.452055% {opacity: 0.2;animation-timing-function: cubic-bezier(0,0,0.58,1)} 84.931507% {opacity: 0;animation-timing-function: cubic-bezier(0,0,0.58,1)} 91.780822% {opacity: 0.2} 100% {opacity: 0.2}} #eLAhyq3sora26 {animation: eLAhyq3sora26_c_o 7300ms linear infinite normal forwards}@keyframes eLAhyq3sora26_c_o { 0% {opacity: 0.2} 76.712329% {opacity: 0.2;animation-timing-function: cubic-bezier(0,0,0.58,1)} 82.191781% {opacity: 0;animation-timing-function: cubic-bezier(0,0,0.58,1)} 89.041096% {opacity: 0.2} 100% {opacity: 0.2}} #eLAhyq3sora27 {animation: eLAhyq3sora27_c_o 7300ms linear infinite normal forwards}@keyframes eLAhyq3sora27_c_o { 0% {opacity: 0.5} 20.547945% {opacity: 0.5;animation-timing-function: cubic-bezier(0,0,0.58,1)} 26.027397% {opacity: 0;animation-timing-function: cubic-bezier(0,0,0.58,1)} 46.575342% {opacity: 0;animation-timing-function: cubic-bezier(0,0,0.58,1)} 52.054795% {opacity: 0.5} 71.232877% {opacity: 0.5;animation-timing-function: cubic-bezier(0,0,0.58,1)} 76.712329% {opacity: 0;animation-timing-function: cubic-bezier(0,0,0.58,1)} 91.780822% {opacity: 0.5} 100% {opacity: 0.5}} #eLAhyq3sora28 {animation: eLAhyq3sora28_c_o 7300ms linear infinite normal forwards}@keyframes eLAhyq3sora28_c_o { 0% {opacity: 0.1} 78.082192% {opacity: 0.1;animation-timing-function: cubic-bezier(0,0,0.58,1)} 83.561644% {opacity: 0;animation-timing-function: cubic-bezier(0,0,0.58,1)} 90.410959% {opacity: 0.1} 100% {opacity: 0.1}} #eLAhyq3sora29 {animation: eLAhyq3sora29_c_o 7300ms linear infinite normal forwards}@keyframes eLAhyq3sora29_c_o { 0% {opacity: 0.1} 79.452055% {opacity: 0.1;animation-timing-function: cubic-bezier(0,0,0.58,1)} 84.931507% {opacity: 0;animation-timing-function: cubic-bezier(0,0,0.58,1)} 91.780822% {opacity: 0.1} 100% {opacity: 0.1}} #eLAhyq3sora30 {animation: eLAhyq3sora30_c_o 7300ms linear infinite normal forwards}@keyframes eLAhyq3sora30_c_o { 0% {opacity: 0.1} 78.082192% {opacity: 0.1;animation-timing-function: cubic-bezier(0,0,0.58,1)} 83.561644% {opacity: 0;animation-timing-function: cubic-bezier(0,0,0.58,1)} 90.410959% {opacity: 0.1} 100% {opacity: 0.1}} #eLAhyq3sora31 {animation: eLAhyq3sora31_c_o 7300ms linear infinite normal forwards}@keyframes eLAhyq3sora31_c_o { 0% {opacity: 0.1} 80.821918% {opacity: 0.1;animation-timing-function: cubic-bezier(0,0,0.58,1)} 86.30137% {opacity: 0;animation-timing-function: cubic-bezier(0,0,0.58,1)} 93.150685% {opacity: 0.1} 100% {opacity: 0.1}} #eLAhyq3sora32 {animation: eLAhyq3sora32_c_o 7300ms linear infinite normal forwards}@keyframes eLAhyq3sora32_c_o { 0% {opacity: 0.1} 72.60274% {opacity: 0.1;animation-timing-function: cubic-bezier(0,0,0.58,1)} 78.082192% {opacity: 0;animation-timing-function: cubic-bezier(0,0,0.58,1)} 84.931507% {opacity: 0.1} 100% {opacity: 0.1}} #eLAhyq3sora33 {animation: eLAhyq3sora33_c_o 7300ms linear infinite normal forwards}@keyframes eLAhyq3sora33_c_o { 0% {opacity: 0.3} 75.342466% {opacity: 0.3;animation-timing-function: cubic-bezier(0,0,0.58,1)} 80.821918% {opacity: 0;animation-timing-function: cubic-bezier(0,0,0.58,1)} 87.671233% {opacity: 0.3} 100% {opacity: 0.3}} #eLAhyq3sora34 {animation: eLAhyq3sora34_c_o 7300ms linear infinite normal forwards}@keyframes eLAhyq3sora34_c_o { 0% {opacity: 0.2} 72.60274% {opacity: 0.2;animation-timing-function: cubic-bezier(0,0,0.58,1)} 78.082192% {opacity: 0;animation-timing-function: cubic-bezier(0,0,0.58,1)} 84.931507% {opacity: 0.2} 100% {opacity: 0.2}} #eLAhyq3sora35 {animation: eLAhyq3sora35_c_o 7300ms linear infinite normal forwards}@keyframes eLAhyq3sora35_c_o { 0% {opacity: 0.2} 82.191781% {opacity: 0.2;animation-timing-function: cubic-bezier(0,0,0.58,1)} 87.671233% {opacity: 0;animation-timing-function: cubic-bezier(0,0,0.58,1)} 100% {opacity: 0.2}} #eLAhyq3sora36 {animation: eLAhyq3sora36_c_o 7300ms linear infinite normal forwards}@keyframes eLAhyq3sora36_c_o { 0% {opacity: 0.3} 10.958904% {opacity: 0.3;animation-timing-function: cubic-bezier(0,0,0.58,1)} 16.438356% {opacity: 0;animation-timing-function: cubic-bezier(0,0,0.58,1)} 36.986301% {opacity: 0;animation-timing-function: cubic-bezier(0,0,0.58,1)} 42.465753% {opacity: 0.3} 76.712329% {opacity: 0.3;animation-timing-function: cubic-bezier(0,0,0.58,1)} 82.191781% {opacity: 0;animation-timing-function: cubic-bezier(0,0,0.58,1)} 89.041096% {opacity: 0.3} 100% {opacity: 0.3}} #eLAhyq3sora37 {animation: eLAhyq3sora37_c_o 7300ms linear infinite normal forwards}@keyframes eLAhyq3sora37_c_o { 0% {opacity: 0.2} 73.972603% {opacity: 0.2;animation-timing-function: cubic-bezier(0,0,0.58,1)} 79.452055% {opacity: 0;animation-timing-function: cubic-bezier(0,0,0.58,1)} 86.30137% {opacity: 0.2} 100% {opacity: 0.2}} #eLAhyq3sora39 {animation: eLAhyq3sora39_c_o 7300ms linear infinite normal forwards}@keyframes eLAhyq3sora39_c_o { 0% {opacity: 0.1} 64.383562% {opacity: 0.1} 69.863014% {opacity: 0} 76.712329% {opacity: 0.1} 100% {opacity: 0.1}} #eLAhyq3sora40 {animation: eLAhyq3sora40_c_o 7300ms linear infinite normal forwards}@keyframes eLAhyq3sora40_c_o { 0% {opacity: 0.1} 69.863014% {opacity: 0.1} 75.342466% {opacity: 0} 82.191781% {opacity: 0.1} 100% {opacity: 0.1}} #eLAhyq3sora41 {animation: eLAhyq3sora41_c_o 7300ms linear infinite normal forwards}@keyframes eLAhyq3sora41_c_o { 0% {opacity: 0.1} 69.863014% {opacity: 0.1} 75.342466% {opacity: 0} 82.191781% {opacity: 0.1} 100% {opacity: 0.1}} #eLAhyq3sora42 {animation: eLAhyq3sora42_c_o 7300ms linear infinite normal forwards}@keyframes eLAhyq3sora42_c_o { 0% {opacity: 0.1} 67.123288% {opacity: 0.1} 72.60274% {opacity: 0} 79.452055% {opacity: 0.1} 100% {opacity: 0.1}} #eLAhyq3sora43 {animation: eLAhyq3sora43_c_o 7300ms linear infinite normal forwards}@keyframes eLAhyq3sora43_c_o { 0% {opacity: 0.1} 68.493151% {opacity: 0.1} 73.972603% {opacity: 0} 80.821918% {opacity: 0.1} 100% {opacity: 0.1}} #eLAhyq3sora44 {animation: eLAhyq3sora44_c_o 7300ms linear infinite normal forwards}@keyframes eLAhyq3sora44_c_o { 0% {opacity: 0.2} 64.383562% {opacity: 0.2} 69.863014% {opacity: 0} 76.712329% {opacity: 0.2} 100% {opacity: 0.2}} #eLAhyq3sora45 {animation: eLAhyq3sora45_c_o 7300ms linear infinite normal forwards}@keyframes eLAhyq3sora45_c_o { 0% {opacity: 0.3} 67.123288% {opacity: 0.3} 72.60274% {opacity: 0} 79.452055% {opacity: 0.3} 100% {opacity: 0.3}} #eLAhyq3sora46 {animation: eLAhyq3sora46_c_o 7300ms linear infinite normal forwards}@keyframes eLAhyq3sora46_c_o { 0% {opacity: 0.2} 15.068493% {opacity: 0.2;animation-timing-function: cubic-bezier(0,0,0.58,1)} 20.547945% {opacity: 0;animation-timing-function: cubic-bezier(0,0,0.58,1)} 49.315068% {opacity: 0;animation-timing-function: cubic-bezier(0,0,0.58,1)} 54.794521% {opacity: 0.2} 68.493151% {opacity: 0.2} 73.972603% {opacity: 0} 80.821918% {opacity: 0.2} 100% {opacity: 0.2}} #eLAhyq3sora47 {animation: eLAhyq3sora47_c_o 7300ms linear infinite normal forwards}@keyframes eLAhyq3sora47_c_o { 0% {opacity: 0.1} 65.753425% {opacity: 0.1} 71.232877% {opacity: 0} 78.082192% {opacity: 0.1} 100% {opacity: 0.1}} #eLAhyq3sora48 {animation: eLAhyq3sora48_c_o 7300ms linear infinite normal forwards}@keyframes eLAhyq3sora48_c_o { 0% {opacity: 0.1} 67.123288% {opacity: 0.1} 72.60274% {opacity: 0} 79.452055% {opacity: 0.1} 100% {opacity: 0.1}} #eLAhyq3sora49 {animation: eLAhyq3sora49_c_o 7300ms linear infinite normal forwards}@keyframes eLAhyq3sora49_c_o { 0% {opacity: 0.2} 67.123288% {opacity: 0.2} 72.60274% {opacity: 0} 79.452055% {opacity: 0.2} 100% {opacity: 0.2}} #eLAhyq3sora50 {animation: eLAhyq3sora50_c_o 7300ms linear infinite normal forwards}@keyframes eLAhyq3sora50_c_o { 0% {opacity: 0.3;animation-timing-function: cubic-bezier(0,0,0.58,1)} 5.479452% {opacity: 0;animation-timing-function: cubic-bezier(0,0,0.58,1)} 30.136986% {opacity: 0;animation-timing-function: cubic-bezier(0,0,0.58,1)} 35.616438% {opacity: 0.3} 63.013699% {opacity: 0.3} 68.493151% {opacity: 0} 75.342466% {opacity: 0.3} 100% {opacity: 0.3}} #eLAhyq3sora52 {animation: eLAhyq3sora52_c_o 7300ms linear infinite normal forwards}@keyframes eLAhyq3sora52_c_o { 0% {opacity: 0.1} 64.383562% {opacity: 0.1} 69.863014% {opacity: 0} 76.712329% {opacity: 0.1} 100% {opacity: 0.1}} #eLAhyq3sora53 {animation: eLAhyq3sora53_c_o 7300ms linear infinite normal forwards}@keyframes eLAhyq3sora53_c_o { 0% {opacity: 0.3} 6.849315% {opacity: 0.3;animation-timing-function: cubic-bezier(0,0,0.58,1)} 12.328767% {opacity: 0;animation-timing-function: cubic-bezier(0,0,0.58,1)} 34.246575% {opacity: 0;animation-timing-function: cubic-bezier(0,0,0.58,1)} 39.726027% {opacity: 0.3} 63.013699% {opacity: 0.3} 68.493151% {opacity: 0} 75.342466% {opacity: 0.3} 100% {opacity: 0.3}} #eLAhyq3sora54 {animation: eLAhyq3sora54_c_o 7300ms linear infinite normal forwards}@keyframes eLAhyq3sora54_c_o { 0% {opacity: 0.2} 65.753425% {opacity: 0.2} 71.232877% {opacity: 0} 78.082192% {opacity: 0.2} 100% {opacity: 0.2}} #eLAhyq3sora55 {animation: eLAhyq3sora55_c_o 7300ms linear infinite normal forwards}@keyframes eLAhyq3sora55_c_o { 0% {opacity: 0.2} 68.493151% {opacity: 0.2} 73.972603% {opacity: 0} 80.821918% {opacity: 0.2} 100% {opacity: 0.2}} #eLAhyq3sora56 {animation: eLAhyq3sora56_c_o 7300ms linear infinite normal forwards}@keyframes eLAhyq3sora56_c_o { 0% {opacity: 0.1} 67.123288% {opacity: 0.1} 72.60274% {opacity: 0} 79.452055% {opacity: 0.1} 100% {opacity: 0.1}}
]]></style>
<g><path id="eLAhyq3sora3" d="M1475,356h7.65c3.34,0,5.43,3.633,3.76,6.54c0,0-2.672744,4.649423-3.82,6.641-1.147744,1.992424-3.83,6.639-3.83,6.639-1.67,2.907-5.85,2.907-7.52,0l-3.83-6.639-3.82-6.641c-1.67-2.907.42-6.54,3.76-6.54h7.65Z" opacity="0.1" clip-rule="evenodd" fill-rule="evenodd"/><path id="eLAhyq3sora4" d="M1646,363h7.65c3.34,0,5.43,3.633,3.76,6.54l-3.82,6.641-3.83,6.639c-1.67,2.907-5.85,2.907-7.52,0l-3.83-6.639-3.82-6.641c-1.67-2.907.42-6.54,3.76-6.54h7.65Z" opacity="0.1" clip-rule="evenodd" fill-rule="evenodd"/><path id="eLAhyq3sora5" d="M1589,456h7.65c3.34,0,5.43,3.633,3.76,6.54l-3.82,6.641-3.83,6.639c-1.67,2.907-5.85,2.907-7.52,0l-3.83-6.639-3.82-6.641c-1.67-2.907.42-6.54,3.76-6.54h7.65Z" opacity="0.3" clip-rule="evenodd" fill-rule="evenodd"/><path id="eLAhyq3sora6" d="M1646,487h7.65c3.34,0,5.43,3.633,3.76,6.54l-3.82,6.641-3.83,6.639c-1.67,2.907-5.85,2.907-7.52,0l-3.83-6.639-3.82-6.641c-1.67-2.907.42-6.54,3.76-6.54h7.65Z" opacity="0.1" clip-rule="evenodd" fill-rule="evenodd"/><path id="eLAhyq3sora7" d="M1532,487h7.65c3.34,0,5.43,3.633,3.76,6.54l-3.82,6.641-3.83,6.639c-1.67,2.907-5.85,2.907-7.52,0l-3.83-6.639-3.82-6.641c-1.67-2.907.42-6.54,3.76-6.54h7.65Z" opacity="0.1" clip-rule="evenodd" fill-rule="evenodd"/><path id="eLAhyq3sora8" d="M1665,456h7.65c3.34,0,5.43,3.633,3.76,6.54l-3.82,6.641-3.83,6.639c-1.67,2.907-5.85,2.907-7.52,0l-3.83-6.639-3.82-6.641c-1.67-2.907.42-6.54,3.76-6.54h7.65Z" opacity="0.1" clip-rule="evenodd" fill-rule="evenodd"/><path id="eLAhyq3sora9" d="M1494,487h7.65c3.34,0,5.43,3.633,3.76,6.54l-3.82,6.641-3.83,6.639c-1.67,2.907-5.85,2.907-7.52,0l-3.83-6.639-3.82-6.641c-1.67-2.907.42-6.54,3.76-6.54h7.65Z" opacity="0.2" clip-rule="evenodd" fill-rule="evenodd"/><path id="eLAhyq3sora10" d="M1570,421h7.65c3.34,0,5.43-3.633,3.76-6.54l-3.82-6.641-3.83-6.639c-1.67-2.907-5.85-2.907-7.52,0l-3.83,6.639-3.82,6.641c-1.67,2.907.42,6.54,3.76,6.54h7.65Z" opacity="0.2" clip-rule="evenodd" fill-rule="evenodd"/><path id="eLAhyq3sora11" d="M1532,483h7.65c3.34,0,5.43-3.633,3.76-6.54l-3.82-6.641-3.83-6.639c-1.67-2.907-5.85-2.907-7.52,0l-3.83,6.639-3.82,6.641c-1.67,2.907.42,6.54,3.76,6.54h7.65Z" opacity="0.2" clip-rule="evenodd" fill-rule="evenodd"/><path id="eLAhyq3sora12" d="M1475,452h7.65c3.34,0,5.43-3.633,3.76-6.54l-3.82-6.641-3.83-6.639c-1.67-2.907-5.85-2.907-7.52,0l-3.83,6.639-3.82,6.641c-1.67,2.907.42,6.54,3.76,6.54h7.65Z" opacity="0.1" clip-rule="evenodd" fill-rule="evenodd"/><path id="eLAhyq3sora13" d="M1780,514h7.65c3.34,0,5.43-3.633,3.76-6.54l-3.82-6.641-3.83-6.639c-1.67-2.907-5.85-2.907-7.52,0l-3.83,6.639-3.82,6.641c-1.67,2.907.42,6.54,3.76,6.54h7.65Z" opacity="0.1" clip-rule="evenodd" fill-rule="evenodd"/><path id="eLAhyq3sora14" d="M1552,514h7.65c3.34,0,5.43-3.633,3.76-6.54l-3.82-6.641-3.83-6.639c-1.67-2.907-5.85-2.907-7.52,0l-3.83,6.639-3.82,6.641c-1.67,2.907.42,6.54,3.76,6.54h7.65Z" opacity="0.1" clip-rule="evenodd" fill-rule="evenodd"/><path id="eLAhyq3sora15" d="M1703,352h7.65c3.34,0,5.43-3.633,3.76-6.54l-3.82-6.641-3.83-6.639c-1.67-2.907-5.85-2.907-7.52,0l-3.83,6.639-3.82,6.641c-1.67,2.907.42,6.54,3.76,6.54h7.65Z" opacity="0.2" clip-rule="evenodd" fill-rule="evenodd"/><path id="eLAhyq3sora16" d="M1551,452h7.65c3.34,0,5.43-3.633,3.76-6.54l-3.82-6.641-3.83-6.639c-1.67-2.907-5.85-2.907-7.52,0l-3.83,6.639-3.82,6.641c-1.67,2.907.42,6.54,3.76,6.54h7.65Z" transform="translate(0-1)" opacity="0.3" clip-rule="evenodd" fill-rule="evenodd"/><path id="eLAhyq3sora17" d="M1608,483h7.65c3.34,0,5.43-3.633,3.76-6.54l-3.82-6.641-3.83-6.639c-1.67-2.907-5.85-2.907-7.52,0l-3.83,6.639-3.82,6.641c-1.67,2.907.42,6.54,3.76,6.54h7.65Z" opacity="0.5" clip-rule="evenodd" fill-rule="evenodd"/></g><g transform="translate(0 0.000001)"><path id="eLAhyq3sora19" d="M1684,66h7.65c3.34,0,5.43,3.6332,3.76,6.5396l-3.82,6.6409-3.83,6.6397c-1.67,2.9064-5.85,2.9064-7.52,0l-3.83-6.6397-3.82-6.6409c-1.67-2.9064.42-6.5396,3.76-6.5396h7.65Z" opacity="0.1" clip-rule="evenodd" fill-rule="evenodd"/><path id="eLAhyq3sora20" d="M1570,4h7.65c3.34,0,5.43,3.63325,3.76,6.5396l-3.82,6.6409-3.83,6.6397c-1.67,2.9064-5.85,2.9064-7.52,0l-3.83-6.6397-3.82-6.6409C1556.92,7.63325,1559.01,4,1562.35,4h7.65Z" opacity="0.1" clip-rule="evenodd" fill-rule="evenodd"/><path id="eLAhyq3sora21" d="M1513,97h7.65c3.34,0,5.43,3.633,3.76,6.54l-3.82,6.641-3.83,6.639c-1.67,2.907-5.85,2.907-7.52,0l-3.83-6.639-3.82-6.641c-1.67-2.907.42-6.54,3.76-6.54h7.65Z" opacity="0.1" clip-rule="evenodd" fill-rule="evenodd"/><path id="eLAhyq3sora22" d="M1627,35h7.65c3.34,0,5.43,3.6332,3.76,6.5396l-3.82,6.6409-3.83,6.6397c-1.67,2.9064-5.85,2.9064-7.52,0l-3.83-6.6397-3.82-6.6409c-1.67-2.9064.42-6.5396,3.76-6.5396h7.65Z" opacity="0.1" clip-rule="evenodd" fill-rule="evenodd"/><path id="eLAhyq3sora23" d="M1703,35h7.65c3.34,0,5.43,3.6332,3.76,6.5396l-3.82,6.6409-3.83,6.6397c-1.67,2.9064-5.85,2.9064-7.52,0l-3.83-6.6397-3.82-6.6409c-1.67-2.9064.42-6.5396,3.76-6.5396h7.65Z" opacity="0.2" clip-rule="evenodd" fill-rule="evenodd"/><path id="eLAhyq3sora24" d="M1532,66h7.65c3.34,0,5.43,3.6332,3.76,6.5396l-3.82,6.6409-3.83,6.6397c-1.67,2.9064-5.85,2.9064-7.52,0l-3.83-6.6397-3.82-6.6409c-1.67-2.9064.42-6.5396,3.76-6.5396h7.65Z" opacity="0.2" clip-rule="evenodd" fill-rule="evenodd"/><path id="eLAhyq3sora25" d="M1475,35h7.65c3.34,0,5.43,3.6332,3.76,6.5396l-3.82,6.6409-3.83,6.6397c-1.67,2.9064-5.85,2.9064-7.52,0l-3.83-6.6397-3.82-6.6409c-1.67-2.9064.42-6.5396,3.76-6.5396h7.65Z" opacity="0.2" clip-rule="evenodd" fill-rule="evenodd"/><path id="eLAhyq3sora26" d="M1608,4h7.65c3.34,0,5.43,3.63325,3.76,6.5396l-3.82,6.6409-3.83,6.6397c-1.67,2.9064-5.85,2.9064-7.52,0l-3.83-6.6397-3.82-6.6409C1594.92,7.63325,1597.01,4,1600.35,4h7.65Z" opacity="0.2" clip-rule="evenodd" fill-rule="evenodd"/><path id="eLAhyq3sora27" d="M1608,66h7.65c3.34,0,5.43,3.6332,3.76,6.5396l-3.82,6.6409-3.83,6.6397c-1.67,2.9064-5.85,2.9064-7.52,0l-3.83-6.6397-3.82-6.6409c-1.67-2.9064.42-6.5396,3.76-6.5396h7.65Z" opacity="0.5" clip-rule="evenodd" fill-rule="evenodd"/><path id="eLAhyq3sora28" d="M1780,31h7.65c3.34,0,5.43-3.6333,3.76-6.5396l-3.82-6.6409-3.83-6.6397c-1.67-2.90639-5.85-2.90639-7.52,0l-3.83,6.6397-3.82,6.6409c-1.67,2.9063.42,6.5396,3.76,6.5396h7.65Z" opacity="0.1" clip-rule="evenodd" fill-rule="evenodd"/><path id="eLAhyq3sora29" d="M1475,31h7.65c3.34,0,5.43-3.6332,3.76-6.5396l-3.82-6.6409-3.83-6.6398c-1.67-2.90631-5.85-2.90631-7.52,0l-3.83,6.6398-3.82,6.6409c-1.67,2.9064.42,6.5396,3.76,6.5396h7.65Z" opacity="0.1" clip-rule="evenodd" fill-rule="evenodd"/><path id="eLAhyq3sora30" d="M1532,4h7.65c3.34,0,5.43,3.63325,3.76,6.5396l-3.82,6.6409-3.83,6.6397c-1.67,2.9064-5.85,2.9064-7.52,0l-3.83-6.6397-3.82-6.6409C1518.92,7.63325,1521.01,4,1524.35,4h7.65Z" opacity="0.1" clip-rule="evenodd" fill-rule="evenodd"/><path id="eLAhyq3sora31" d="M1456,62h7.65c3.34,0,5.43-3.6332,3.76-6.5396l-3.82-6.6409-3.83-6.6397c-1.67-2.9064-5.85-2.9064-7.52,0l-3.83,6.6397-3.82,6.6409c-1.67,2.9064.42,6.5396,3.76,6.5396h7.65Z" opacity="0.1" clip-rule="evenodd" fill-rule="evenodd"/><path id="eLAhyq3sora32" d="M1627,93h7.65c3.34,0,5.43-3.6332,3.76-6.5396l-3.82-6.6409-3.83-6.6397c-1.67-2.9064-5.85-2.9064-7.52,0l-3.83,6.6397-3.82,6.6409c-1.67,2.9064.42,6.5396,3.76,6.5396h7.65Z" opacity="0.1" clip-rule="evenodd" fill-rule="evenodd"/><path id="eLAhyq3sora33" d="M1589,31h7.65c3.34,0,5.43-3.6333,3.76-6.5396l-3.82-6.6409-3.83-6.6397c-1.67-2.90639-5.85-2.90639-7.52,0l-3.83,6.6397-3.82,6.6409c-1.67,2.9063.42,6.5396,3.76,6.5396h7.65Z" opacity="0.3" clip-rule="evenodd" fill-rule="evenodd"/><path id="eLAhyq3sora34" d="M1589,93h7.65c3.34,0,5.43-3.6332,3.76-6.5396l-3.82-6.6409-3.83-6.6397c-1.67-2.9064-5.85-2.9064-7.52,0l-3.83,6.6397-3.82,6.6409c-1.67,2.9064.42,6.5396,3.76,6.5396h7.65Z" opacity="0.2" clip-rule="evenodd" fill-rule="evenodd"/><path id="eLAhyq3sora35" d="M1780,229h7.65c3.34,0,5.43,3.633,3.76,6.54l-3.82,6.641-3.83,6.639c-1.67,2.907-5.85,2.907-7.52,0l-3.83-6.639-3.82-6.641c-1.67-2.907.42-6.54,3.76-6.54h7.65Z" opacity="0.2" clip-rule="evenodd" fill-rule="evenodd"/><path id="eLAhyq3sora36" d="M1532,62h7.65c3.34,0,5.43-3.6332,3.76-6.5396l-3.82-6.6409-3.83-6.6397c-1.67-2.9064-5.85-2.9064-7.52,0l-3.83,6.6397-3.82,6.6409c-1.67,2.9064.42,6.5396,3.76,6.5396h7.65Z" opacity="0.3" clip-rule="evenodd" fill-rule="evenodd"/><path id="eLAhyq3sora37" d="M1646,62h7.65c3.34,0,5.43-3.6332,3.76-6.5396l-3.82-6.6409-3.83-6.6397c-1.67-2.9064-5.85-2.9064-7.52,0l-3.83,6.6397-3.82,6.6409c-1.67,2.9064.42,6.5396,3.76,6.5396h7.65Z" opacity="0.2" clip-rule="evenodd" fill-rule="evenodd"/></g><g><path id="eLAhyq3sora39" d="M91,91h7.6455c3.3475,0,5.4385,3.6332,3.7655,6.5396l-3.8226,6.6414-3.8239,6.639c-1.6731,2.907-5.8559,2.907-7.529,0l-3.8239-6.639-3.8228-6.6414C77.9157,94.6332,80.0071,91,83.3545,91L91,91Z" opacity="0.1" clip-rule="evenodd" fill-rule="evenodd"/><path id="eLAhyq3sora40" d="M15,29h7.6455c3.3474,0,5.4388,3.6333,3.7657,6.5396l-3.8228,6.6409-3.8239,6.6397c-1.6731,2.9064-5.8559,2.9064-7.529,0L7.41158,42.1805L3.58884,35.5396C1.91572,32.6333,4.00712,29,7.35454,29L15,29Z" opacity="0.1" clip-rule="evenodd" fill-rule="evenodd"/><path id="eLAhyq3sora41" d="M186,60h7.645c3.348,0,5.439,3.6332,3.766,6.5396l-3.823,6.6409-3.824,6.6397c-1.673,2.9064-5.855,2.9064-7.528,0l-3.824-6.6397-3.823-6.6409C172.916,63.6332,175.007,60,178.355,60h7.645Z" opacity="0.1" clip-rule="evenodd" fill-rule="evenodd"/><path id="eLAhyq3sora42" d="M129,29h7.645c3.348,0,5.439,3.6333,3.766,6.5396l-3.823,6.6409-3.824,6.6397c-1.673,2.9064-5.855,2.9064-7.528,0l-3.824-6.6397-3.823-6.6409C115.916,32.6333,118.007,29,121.355,29h7.645Z" opacity="0.1" clip-rule="evenodd" fill-rule="evenodd"/><path id="eLAhyq3sora43" d="M15,91h7.6455c3.3474,0,5.4388,3.6332,3.7657,6.5396l-3.8228,6.6414-3.8239,6.639c-1.6731,2.907-5.8559,2.907-7.529,0l-3.82392-6.639-3.82274-6.6414C1.91572,94.6332,4.00712,91,7.35454,91L15,91Z" opacity="0.1" clip-rule="evenodd" fill-rule="evenodd"/><path id="eLAhyq3sora44" d="M72,122h7.6455c3.3474,0,5.4388,3.633,3.7657,6.54l-3.8228,6.641-3.8239,6.639c-1.6731,2.907-5.8559,2.907-7.529,0l-3.8239-6.639-3.8228-6.641c-1.6731-2.907.4183-6.54,3.7657-6.54L72,122Z" opacity="0.2" clip-rule="evenodd" fill-rule="evenodd"/><path id="eLAhyq3sora45" d="M34,60h7.6455c3.3474,0,5.4388,3.6332,3.7657,6.5396l-3.8228,6.6409-3.8239,6.6397c-1.6731,2.9064-5.8559,2.9064-7.529,0l-3.8239-6.6397-3.8228-6.6409C20.9157,63.6332,23.0071,60,26.3545,60L34,60Z" opacity="0.3" clip-rule="evenodd" fill-rule="evenodd"/><path id="eLAhyq3sora46" d="M148,56h7.645c3.348,0,5.439-3.6333,3.766-6.5396l-3.823-6.6409-3.824-6.6397c-1.673-2.9064-5.855-2.9064-7.528,0l-3.824,6.6397-3.823,6.6409C134.916,52.3667,137.007,56,140.355,56h7.645Z" opacity="0.2" clip-rule="evenodd" fill-rule="evenodd"/><path id="eLAhyq3sora47" d="M53,149h7.6455c3.3474,0,5.4388-3.633,3.7657-6.54l-3.8228-6.641-3.8239-6.639c-1.6731-2.907-5.8559-2.907-7.529,0l-3.8239,6.639-3.8228,6.641c-1.6731,2.907.4183,6.54,3.7657,6.54L53,149Z" opacity="0.1" clip-rule="evenodd" fill-rule="evenodd"/><path id="eLAhyq3sora48" d="M91,25h7.6455c3.3475,0,5.4385-3.6333,3.7655-6.5396l-3.8226-6.6409-3.8239-6.63973c-1.6731-2.90636-5.8559-2.90636-7.529,0L83.4116,11.8195l-3.8228,6.6409C77.9157,21.3667,80.0071,25,83.3545,25L91,25Z" opacity="0.1" clip-rule="evenodd" fill-rule="evenodd"/><path id="eLAhyq3sora49" d="M34,56h7.6455c3.3474,0,5.4388-3.6333,3.7657-6.5396l-3.8228-6.6409-3.8239-6.6397c-1.6731-2.9064-5.8559-2.9064-7.529,0l-3.8239,6.6397-3.8228,6.6409C20.9157,52.3667,23.0071,56,26.3545,56L34,56Z" opacity="0.2" clip-rule="evenodd" fill-rule="evenodd"/><path id="eLAhyq3sora50" d="M72,118h7.6455c3.3474,0,5.4388-3.633,3.7657-6.54l-3.8228-6.641-3.8239-6.6392c-1.6731-2.9064-5.8559-2.9064-7.529,0l-3.8239,6.6392-3.8228,6.641c-1.6731,2.907.4183,6.54,3.7657,6.54L72,118Z" opacity="0.3" clip-rule="evenodd" fill-rule="evenodd"/></g><g><path id="eLAhyq3sora52" d="M117,519h7.645c3.348,0,5.439,3.633,3.766,6.54l-3.823,6.641-3.824,6.639c-1.673,2.907-5.855,2.907-7.528,0l-3.824-6.639-3.823-6.641c-1.673-2.907.418-6.54,3.766-6.54h7.645Z" opacity="0.1" clip-rule="evenodd" fill-rule="evenodd"/><path id="eLAhyq3sora53" d="M136,488c2.2935,0,7.645,0,7.645,0c3.348,0,5.439,3.633,3.766,6.54l-3.823,6.641-3.824,6.639c-1.673,2.907-5.855,2.907-7.528,0l-3.824-6.639-3.823-6.641c-1.673-2.907.418-6.54,3.766-6.54c0,0,5.3515,0,7.645,0Z" opacity="0.3" clip-rule="evenodd" fill-rule="evenodd"/><path id="eLAhyq3sora54" d="M98,546h7.645c3.348,0,5.439-3.633,3.766-6.54l-3.823-6.641-3.824-6.639c-1.673-2.907-5.8554-2.907-7.5285,0l-3.8239,6.639-3.8228,6.641c-1.6731,2.907.4183,6.54,3.7657,6.54L98,546Z" opacity="0.2" clip-rule="evenodd" fill-rule="evenodd"/><path id="eLAhyq3sora55" d="M41,515h7.6455c3.3474,0,5.4388-3.633,3.7657-6.54l-3.8228-6.641-3.8239-6.639c-1.6731-2.907-5.8559-2.907-7.529,0l-3.8239,6.639-3.8228,6.641c-1.6731,2.907.4183,6.54,3.7657,6.54L41,515Z" opacity="0.2" clip-rule="evenodd" fill-rule="evenodd"/><path id="eLAhyq3sora56" d="M79,453h7.6455c3.3474,0,5.4388-3.633,3.7657-6.54l-3.8228-6.641-3.8239-6.639c-1.6731-2.907-5.8559-2.907-7.529,0l-3.8239,6.639-3.8228,6.641c-1.6731,2.907.4183,6.54,3.7657,6.54L79,453Z" opacity="0.1" clip-rule="evenodd" fill-rule="evenodd"/></g></svg>
